<svg width="50" height="50" viewBox="0 0 50 50" fill="none" xmlns="http://www.w3.org/2000/svg">
<rect width="50" height="50" fill="white"/>
<path d="M8 14C8 10.6863 10.6863 8 14 8H43V37C43 40.3137 40.3137 43 37 43H8V14Z" fill="#FFA904"/>
<g filter="url(#filter0_d_14_19)">
<rect width="29" height="26" transform="translate(11 11)" fill="white"/>
</g>
<path d="M30.4141 22.2166C30.3674 21.5848 30.3031 20.9405 30.2213 20.2837L30.1878 20.0146L29.9223 20.0699L27.1162 20.6541L26.8791 20.7035L26.9209 20.942C27.1963 22.5132 27.3654 24.2954 27.4272 26.2896L27.1494 31.7401L27.1334 32.0549L27.4436 31.9988L30.5511 31.437L30.7669 31.398L30.7563 31.1789L30.5015 25.9041V24.4119C31.2949 23.9497 31.9826 23.7331 32.5706 23.7331C33.2289 23.7331 33.5326 23.902 33.6491 24.1185C33.7206 24.2513 33.7852 24.4744 33.8302 24.8086C33.8744 25.1369 33.8974 25.5536 33.8975 26.0614L33.6195 31.8532L33.6045 32.1667L33.9134 32.1112L37.0441 31.5494L37.2601 31.5107L37.2497 31.2916L36.9952 25.9111L37.1337 23.4071L37.134 23.4071V23.3933C37.134 22.4361 36.8824 21.6509 36.3509 21.0686C35.8251 20.4776 35.1627 20.177 34.3795 20.177C33.6371 20.177 32.9293 20.3772 32.2598 20.7724C31.6207 21.1351 31.1349 21.4771 30.8174 21.8002C30.6762 21.9371 30.5418 22.0759 30.4141 22.2166Z" fill="#FFA904" stroke="#FFA904" stroke-width="0.5"/>
<path d="M15.9189 18.3785L15.9189 18.3785L15.9181 18.3795C14.4693 20.1229 13.75 22.2639 13.75 24.7865C13.75 26.8611 14.3541 28.6279 15.5714 30.0713C16.7905 31.5169 18.3043 32.25 20.0991 32.25C21.4779 32.25 22.7187 31.8684 23.8136 31.1039L23.8136 31.1039L23.8155 31.1025C24.9104 30.3224 25.7198 29.2474 26.2459 27.888L26.3242 27.6857L26.1349 27.5797L24.2101 26.501L23.9456 26.3528L23.8505 26.6407C23.6184 27.3436 23.2227 27.8992 22.663 28.3164C22.1026 28.7341 21.4823 28.941 20.7948 28.941C19.74 28.941 18.9118 28.4858 18.2904 27.5481C17.6592 26.5804 17.3343 25.3359 17.3343 23.7978C17.3343 22.239 17.646 21.0792 18.235 20.285C18.8373 19.4936 19.6217 19.1039 20.6093 19.1039C21.093 19.1039 21.6473 19.2282 22.2759 19.4893L22.2759 19.4894L22.2805 19.4912C22.9159 19.7404 23.391 20.0055 23.7181 20.2811L23.9599 20.4848L24.1024 20.2026L25.6793 17.079L25.7847 16.8703L25.5835 16.7512L25.1661 16.504L25.1661 16.5039L25.161 16.5011C24.833 16.317 24.308 16.1538 23.6103 16.0035C22.909 15.8339 22.1479 15.75 21.3282 15.75C19.192 15.75 17.3847 16.6339 15.9189 18.3785Z" fill="#FFA904" stroke="#FFA904" stroke-width="0.5"/>
<defs>
<filter id="filter0_d_14_19" x="7" y="11" width="37" height="34" filterUnits="userSpaceOnUse" color-interpolation-filters="sRGB">
<feFlood flood-opacity="0" result="BackgroundImageFix"/>
<feColorMatrix in="SourceAlpha" type="matrix" values="0 0 0 0 0 0 0 0 0 0 0 0 0 0 0 0 0 0 127 0" result="hardAlpha"/>
<feOffset dy="4"/>
<feGaussianBlur stdDeviation="2"/>
<feComposite in2="hardAlpha" operator="out"/>
<feColorMatrix type="matrix" values="0 0 0 0 0 0 0 0 0 0 0 0 0 0 0 0 0 0 0.25 0"/>
<feBlend mode="normal" in2="BackgroundImageFix" result="effect1_dropShadow_14_19"/>
<feBlend mode="normal" in="SourceGraphic" in2="effect1_dropShadow_14_19" result="shape"/>
</filter>
</defs>
</svg>
