<svg width="55" height="55" viewBox="0 0 55 55" fill="none" xmlns="http://www.w3.org/2000/svg">
<rect width="55" height="55" fill="white"/>
<path d="M2.5 8C2.5 4.68629 5.18629 2 8.5 2H52.5V46C52.5 49.3137 49.8137 52 46.5 52H2.5V8Z" fill="#FFA904"/>
<g filter="url(#filter0_d_27_7)">
<rect width="40" height="36" transform="translate(7.5 6)" fill="white"/>
</g>
<path d="M33.8472 20.7509C33.7855 19.8216 33.6974 18.8724 33.5829 17.9033L33.5505 17.6292L33.281 17.6884L29.621 18.4918L29.389 18.5427L29.4279 18.777C29.7883 20.9445 30.0092 23.4016 30.0899 26.1493L29.7273 33.648L29.712 33.9651L30.0238 33.9057L34.0772 33.1332L34.29 33.0927L34.2801 32.8762L33.9476 25.6207V23.5088C35.0072 22.851 35.93 22.5393 36.7225 22.5393C37.5824 22.5393 38.0181 22.7697 38.1938 23.1137C38.2951 23.3121 38.3814 23.6335 38.4407 24.0977C38.4992 24.556 38.5292 25.1349 38.5294 25.837L38.1667 33.8032L38.1523 34.119L38.4629 34.0603L42.5464 33.2878L42.7594 33.2475L42.7497 33.0309L42.4175 25.6274L42.5984 22.1788L42.5987 22.1788V22.1657C42.5987 20.8691 42.2759 19.816 41.601 19.037C40.9311 18.2429 40.0864 17.8371 39.0819 17.8371C38.125 17.8371 37.2131 18.1091 36.3503 18.6461C35.5179 19.144 34.8911 19.6102 34.4847 20.0465C34.2587 20.2774 34.0462 20.5122 33.8472 20.7509Z" fill="#FFA904" stroke="#FFA904" stroke-width="0.5"/>
<path d="M15.0571 15.3358L15.0563 15.3368C13.1815 17.715 12.25 20.6351 12.25 24.0815C12.25 26.9111 13.0309 29.3167 14.6037 31.2826C16.1785 33.2511 18.1331 34.25 20.4554 34.25C22.2419 34.25 23.8468 33.7289 25.2619 32.6873L25.2638 32.6859C26.6784 31.6234 27.7235 30.1602 28.4035 28.3081L28.4752 28.1126L28.2959 28.0067L25.7853 26.5235L25.5138 26.3631L25.4196 26.664C25.1108 27.6498 24.5836 28.4298 23.84 29.0141C23.096 29.5987 22.2728 29.8876 21.3628 29.8876C19.9659 29.8876 18.8623 29.25 18.0359 27.9352C17.2001 26.5846 16.7731 24.8522 16.7731 22.7219C16.7731 20.5655 17.182 18.9457 17.9668 17.8305C18.769 16.7191 19.814 16.1742 21.1209 16.1742C21.7622 16.1742 22.4937 16.3479 23.3195 16.7094L23.3195 16.7094L23.3242 16.7114C24.1565 17.0555 24.7844 17.4237 25.2199 17.8105L25.468 18.0309L25.6114 17.7316L27.6683 13.4366L27.7649 13.235L27.5752 13.1166L27.0307 12.7767L27.0308 12.7766L27.0256 12.7736C26.6074 12.5263 25.9308 12.3035 25.021 12.0968C24.1117 11.8649 23.1238 11.75 22.0586 11.75C19.2914 11.75 16.9539 12.956 15.0571 15.3358Z" fill="#FFA904" stroke="#FFA904" stroke-width="0.5"/>
<defs>
<filter id="filter0_d_27_7" x="3.5" y="6" width="48" height="44" filterUnits="userSpaceOnUse" color-interpolation-filters="sRGB">
<feFlood flood-opacity="0" result="BackgroundImageFix"/>
<feColorMatrix in="SourceAlpha" type="matrix" values="0 0 0 0 0 0 0 0 0 0 0 0 0 0 0 0 0 0 127 0" result="hardAlpha"/>
<feOffset dy="4"/>
<feGaussianBlur stdDeviation="2"/>
<feComposite in2="hardAlpha" operator="out"/>
<feColorMatrix type="matrix" values="0 0 0 0 0 0 0 0 0 0 0 0 0 0 0 0 0 0 0.25 0"/>
<feBlend mode="normal" in2="BackgroundImageFix" result="effect1_dropShadow_27_7"/>
<feBlend mode="normal" in="SourceGraphic" in2="effect1_dropShadow_27_7" result="shape"/>
</filter>
</defs>
</svg>
