<svg width="162" height="55" viewBox="0 0 162 55" fill="none" xmlns="http://www.w3.org/2000/svg">
<path d="M8 3C5.23858 3 3 5.23858 3 8V44C3 46.7614 5.23857 49 8 49H154C156.761 49 159 46.7614 159 44V8C159 5.23858 156.761 3 154 3H8Z" fill="white" stroke="#FFA904" stroke-width="6"/>
<path d="M25.24 37.42C21.46 37.42 18.54 36.46 16.48 34.54C14.44 32.62 13.42 29.55 13.42 25.33C13.42 17.27 17.34 13.24 25.18 13.24C27.08 13.24 28.84 13.47 30.46 13.93C32.1 14.39 33.32 14.9 34.12 15.46V22.96H26.92V20.8C26.92 20.04 26.75 19.48 26.41 19.12C26.07 18.76 25.56 18.58 24.88 18.58C24.2 18.58 23.69 18.76 23.35 19.12C23.01 19.48 22.84 20.04 22.84 20.8V29.86C22.84 30.62 23.01 31.18 23.35 31.54C23.69 31.9 24.2 32.08 24.88 32.08C25.56 32.08 26.07 31.9 26.41 31.54C26.75 31.18 26.92 30.62 26.92 29.86V27.43H34.12V35.2C33.3 35.76 32.08 36.27 30.46 36.73C28.86 37.19 27.12 37.42 25.24 37.42ZM44.1304 37.42C41.2904 37.42 39.0704 36.68 37.4704 35.2C35.8704 33.7 35.0704 31.52 35.0704 28.66C35.0704 25.8 35.8704 23.63 37.4704 22.15C39.0704 20.65 41.2904 19.9 44.1304 19.9C47.0104 19.9 49.2404 20.66 50.8204 22.18C52.4004 23.68 53.1904 25.84 53.1904 28.66C53.1904 31.52 52.3904 33.7 50.7904 35.2C49.1904 36.68 46.9704 37.42 44.1304 37.42ZM44.1304 32.08C44.7104 32.08 45.1404 31.93 45.4204 31.63C45.7204 31.31 45.8704 30.82 45.8704 30.16V27.16C45.8704 26.5 45.7204 26.02 45.4204 25.72C45.1404 25.4 44.7104 25.24 44.1304 25.24C43.5504 25.24 43.1104 25.4 42.8104 25.72C42.5304 26.02 42.3904 26.5 42.3904 27.16V30.16C42.3904 30.82 42.5304 31.31 42.8104 31.63C43.1104 31.93 43.5504 32.08 44.1304 32.08ZM74.0655 32.08V37H64.5855V32.08H65.8455V27.16C65.8455 26.5 65.7055 26.02 65.4255 25.72C65.1455 25.4 64.7255 25.24 64.1655 25.24C62.9655 25.24 62.3655 25.88 62.3655 27.16V32.08H63.6255V37H54.1455V32.08H55.4655V25.24H54.1455V20.32H62.3655V22.66C63.8055 20.82 65.6055 19.9 67.7655 19.9C69.4255 19.9 70.6655 20.42 71.4855 21.46C72.3255 22.5 72.7455 23.93 72.7455 25.75V32.08H74.0655ZM94.9541 32.08V37H85.4741V32.08H86.7341V27.16C86.7341 26.5 86.5941 26.02 86.3141 25.72C86.0341 25.4 85.6141 25.24 85.0541 25.24C83.8541 25.24 83.2541 25.88 83.2541 27.16V32.08H84.5141V37H75.0341V32.08H76.3541V25.24H75.0341V20.32H83.2541V22.66C84.6941 20.82 86.4941 19.9 88.6541 19.9C90.3141 19.9 91.5541 20.42 92.3741 21.46C93.2141 22.5 93.6341 23.93 93.6341 25.75V32.08H94.9541ZM104.863 37.42C102.023 37.42 99.8028 36.68 98.2028 35.2C96.6028 33.7 95.8028 31.52 95.8028 28.66C95.8028 25.8 96.6028 23.63 98.2028 22.15C99.8028 20.65 102.023 19.9 104.863 19.9C107.683 19.9 109.713 20.64 110.953 22.12C112.213 23.58 112.843 25.4 112.843 27.58V29.74H103.123V29.92C103.123 30.66 103.343 31.21 103.783 31.57C104.223 31.91 104.953 32.08 105.973 32.08C107.193 32.08 108.353 31.99 109.453 31.81C110.553 31.63 111.513 31.4 112.333 31.12V35.92C111.633 36.3 110.603 36.65 109.243 36.97C107.903 37.27 106.443 37.42 104.863 37.42ZM106.603 26.44V26.08C106.603 25.4 106.453 24.91 106.153 24.61C105.873 24.31 105.443 24.16 104.863 24.16C104.283 24.16 103.843 24.32 103.543 24.64C103.263 24.94 103.123 25.42 103.123 26.08V26.44H106.603ZM122.705 37.42C119.845 37.42 117.615 36.68 116.015 35.2C114.415 33.7 113.615 31.52 113.615 28.66C113.615 25.8 114.415 23.63 116.015 22.15C117.615 20.65 119.835 19.9 122.675 19.9C124.055 19.9 125.375 20.09 126.635 20.47C127.895 20.85 128.875 21.28 129.575 21.76V27.7H124.415V27.16C124.415 26.5 124.275 26.02 123.995 25.72C123.715 25.4 123.275 25.24 122.675 25.24C121.515 25.24 120.935 25.88 120.935 27.16V29.74C120.935 31.3 121.825 32.08 123.605 32.08C125.265 32.08 127.195 31.9 129.395 31.54V36.25C128.715 36.55 127.755 36.82 126.515 37.06C125.295 37.3 124.025 37.42 122.705 37.42ZM137.991 37.42C135.871 37.42 134.271 36.91 133.191 35.89C132.131 34.85 131.601 33.11 131.601 30.67V25.24H130.281V20.32C131.041 20.32 131.611 20.13 131.991 19.75C132.371 19.35 132.561 18.81 132.561 18.13V16.78H138.921V20.32H142.971V25.24H138.921V30.16C138.921 30.82 139.061 31.31 139.341 31.63C139.641 31.93 140.081 32.08 140.661 32.08C141.421 32.08 142.251 31.99 143.151 31.81V36.52C142.591 36.74 141.831 36.94 140.871 37.12C139.931 37.32 138.971 37.42 137.991 37.42ZM144.776 37V32.08H149.456V37H144.776Z" fill="#FFA904"/>
</svg>
